<svg width="24" height="28" viewBox="0 0 24 28" fill="none" xmlns="http://www.w3.org/2000/svg">
<g opacity="0.9">
<path fill-rule="evenodd" clip-rule="evenodd" d="M4.92961 21.6568C4.53909 22.0473 4.53909 22.6805 4.92961 23.071C5.32014 23.4615 5.9533 23.4615 6.34383 23.071L12.0008 17.414L17.658 23.0711C18.0485 23.4616 18.6817 23.4616 19.0722 23.0711C19.4627 22.6806 19.4627 22.0474 19.0722 21.6569L13.4151 15.9998L19.0717 10.3431C19.4623 9.95257 19.4623 9.3194 19.0717 8.92888C18.6812 8.53835 18.0481 8.53836 17.6575 8.92888L12.0008 14.5856L6.34427 8.92899C5.95374 8.53846 5.32058 8.53846 4.93005 8.92899C4.53953 9.31951 4.53953 9.95267 4.93005 10.3432L10.5866 15.9998L4.92961 21.6568Z" fill="#9797AF"/>
</g>
</svg>
